<svg class="main-svg" xmlns="http://www.w3.org/2000/svg" xmlns:xlink="http://www.w3.org/1999/xlink" width="700" height="500" style="" viewBox="0 0 700 500"><rect x="0" y="0" width="700" height="500" style="fill: rgb(20, 20, 20); fill-opacity: 1;"/><defs id="defs-b0c768"><g class="clips"><clipPath id="clipb0c768xyplot" class="plotclip"><rect width="485" height="320"/></clipPath><clipPath class="axesclip" id="clipb0c768x"><rect x="80" y="0" width="485" height="500"/></clipPath><clipPath class="axesclip" id="clipb0c768y"><rect x="0" y="100" width="700" height="320"/></clipPath><clipPath class="axesclip" id="clipb0c768xy"><rect x="80" y="100" width="485" height="320"/></clipPath></g><g class="gradients"/></defs><g class="bglayer"><rect class="bg" x="80" y="100" width="485" height="320" style="fill: rgb(229, 236, 246); fill-opacity: 1; stroke-width: 0;"/></g><g class="layer-below"><g class="imagelayer"/><g class="shapelayer"/></g><g class="cartesianlayer"><g class="subplot xy"><g class="layer-subplot"><g class="shapelayer"/><g class="imagelayer"/></g><g class="gridlayer"><g class="x"><path class="xgrid crisp" transform="translate(113.63,0)" d="M0,100v320" style="stroke: rgb(255, 255, 255); stroke-opacity: 1; stroke-width: 1px;"/><path class="xgrid crisp" transform="translate(531.38,0)" d="M0,100v320" style="stroke: rgb(255, 255, 255); stroke-opacity: 1; stroke-width: 1px;"/></g><g class="y"><path class="ygrid crisp" transform="translate(0,398.09)" d="M80,0h485" style="stroke: rgb(255, 255, 255); stroke-opacity: 1; stroke-width: 1px;"/><path class="ygrid crisp" transform="translate(0,357.46)" d="M80,0h485" style="stroke: rgb(255, 255, 255); stroke-opacity: 1; stroke-width: 1px;"/><path class="ygrid crisp" transform="translate(0,316.83000000000004)" d="M80,0h485" style="stroke: rgb(255, 255, 255); stroke-opacity: 1; stroke-width: 1px;"/><path class="ygrid crisp" transform="translate(0,276.2)" d="M80,0h485" style="stroke: rgb(255, 255, 255); stroke-opacity: 1; stroke-width: 1px;"/><path class="ygrid crisp" transform="translate(0,235.57)" d="M80,0h485" style="stroke: rgb(255, 255, 255); stroke-opacity: 1; stroke-width: 1px;"/><path class="ygrid crisp" transform="translate(0,194.94)" d="M80,0h485" style="stroke: rgb(255, 255, 255); stroke-opacity: 1; stroke-width: 1px;"/><path class="ygrid crisp" transform="translate(0,154.31)" d="M80,0h485" style="stroke: rgb(255, 255, 255); stroke-opacity: 1; stroke-width: 1px;"/><path class="ygrid crisp" transform="translate(0,113.68)" d="M80,0h485" style="stroke: rgb(255, 255, 255); stroke-opacity: 1; stroke-width: 1px;"/></g></g><g class="zerolinelayer"/><path class="xlines-below"/><path class="ylines-below"/><g class="overlines-below"/><g class="xaxislayer-below"/><g class="yaxislayer-below"/><g class="overaxes-below"/><g class="plot" transform="translate(80, 100)" clip-path="url('#clipb0c768xyplot')"><g class="scatterlayer mlayer"><g class="trace scatter traced564ec" style="stroke-miterlimit: 2; opacity: 1;"><g class="fills"/><g class="errorbars"/><g class="lines"/><g class="points"><path class="point" transform="translate(33.63,25.38)" d="M7.5,0A7.5,7.5 0 1,1 0,-7.5A7.5,7.5 0 0,1 7.5,0Z" style="opacity: 0.8; stroke-width: 0px; fill: rgb(192, 0, 0); fill-opacity: 1;"/><path class="point" transform="translate(451.38,120.21)" d="M7.5,0A7.5,7.5 0 1,1 0,-7.5A7.5,7.5 0 0,1 7.5,0Z" style="opacity: 0.8; stroke-width: 0px; fill: rgb(192, 0, 0); fill-opacity: 1;"/></g><g class="text"/></g><g class="trace scatter tracecc0afd" style="stroke-miterlimit: 2; opacity: 1;"><g class="fills"/><g class="errorbars"/><g class="lines"/><g class="points"><path class="point" transform="translate(33.63,294.63)" d="M7.5,0A7.5,7.5 0 1,1 0,-7.5A7.5,7.5 0 0,1 7.5,0Z" style="opacity: 0.8; stroke-width: 0px; fill: rgb(50, 52, 170); fill-opacity: 1;"/><path class="point" transform="translate(451.38,294.17)" d="M7.5,0A7.5,7.5 0 1,1 0,-7.5A7.5,7.5 0 0,1 7.5,0Z" style="opacity: 0.8; stroke-width: 0px; fill: rgb(50, 52, 170); fill-opacity: 1;"/></g><g class="text"/></g></g></g><g class="overplot"/><path class="xlines-above crisp" style="fill: none;" d="M0,0"/><path class="ylines-above crisp" style="fill: none;" d="M0,0"/><g class="overlines-above"/><g class="xaxislayer-above"><g class="xtick"><text text-anchor="middle" x="0" y="436" transform="translate(113.63,0)" style="font-family: Arial; font-size: 15px; fill: rgb(245, 222, 179); fill-opacity: 1; white-space: pre;">female</text></g><g class="xtick"><text text-anchor="middle" x="0" y="436" transform="translate(531.38,0)" style="font-family: Arial; font-size: 15px; fill: rgb(245, 222, 179); fill-opacity: 1; white-space: pre;">male</text></g></g><g class="yaxislayer-above"><g class="ytick"><text text-anchor="end" x="79" y="5.25" transform="translate(0,398.09)" style="font-family: Arial; font-size: 15px; fill: rgb(245, 222, 179); fill-opacity: 1; white-space: pre;">0</text></g><g class="ytick"><text text-anchor="end" x="79" y="5.25" transform="translate(0,357.46)" style="font-family: Arial; font-size: 15px; fill: rgb(245, 222, 179); fill-opacity: 1; white-space: pre;">50k</text></g><g class="ytick"><text text-anchor="end" x="79" y="5.25" transform="translate(0,316.83000000000004)" style="font-family: Arial; font-size: 15px; fill: rgb(245, 222, 179); fill-opacity: 1; white-space: pre;">100k</text></g><g class="ytick"><text text-anchor="end" x="79" y="5.25" transform="translate(0,276.2)" style="font-family: Arial; font-size: 15px; fill: rgb(245, 222, 179); fill-opacity: 1; white-space: pre;">150k</text></g><g class="ytick"><text text-anchor="end" x="79" y="5.25" transform="translate(0,235.57)" style="font-family: Arial; font-size: 15px; fill: rgb(245, 222, 179); fill-opacity: 1; white-space: pre;">200k</text></g><g class="ytick"><text text-anchor="end" x="79" y="5.25" transform="translate(0,194.94)" style="font-family: Arial; font-size: 15px; fill: rgb(245, 222, 179); fill-opacity: 1; white-space: pre;">250k</text></g><g class="ytick"><text text-anchor="end" x="79" y="5.25" transform="translate(0,154.31)" style="font-family: Arial; font-size: 15px; fill: rgb(245, 222, 179); fill-opacity: 1; white-space: pre;">300k</text></g><g class="ytick"><text text-anchor="end" x="79" y="5.25" transform="translate(0,113.68)" style="font-family: Arial; font-size: 15px; fill: rgb(245, 222, 179); fill-opacity: 1; white-space: pre;">350k</text></g></g><g class="overaxes-above"/></g></g><g class="polarlayer"/><g class="ternarylayer"/><g class="geolayer"/><g class="funnelarealayer"/><g class="pielayer"/><g class="treemaplayer"/><g class="sunburstlayer"/><g class="glimages"/><defs id="topdefs-b0c768"><g class="clips"/><clipPath id="legendb0c768"><rect width="113" height="55" x="0" y="0"/></clipPath></defs><g class="layer-above"><g class="imagelayer"/><g class="shapelayer"/></g><g class="infolayer"><g class="legend" pointer-events="all" transform="translate(574.7, 100)"><rect class="bg" shape-rendering="crispEdges" style="stroke: rgb(68, 68, 68); stroke-opacity: 1; fill: rgb(20, 20, 20); fill-opacity: 1; stroke-width: 0px;" width="113" height="55" x="0" y="0"/><g class="scrollbox" transform="translate(0, 0)" clip-path="url('#legendb0c768')"><g class="groups"><g class="traces" style="opacity: 1;" transform="translate(0, 16.25)"><text class="legendtext user-select-none" text-anchor="start" x="40" y="5.85" style="font-family: Arial; font-size: 15px; fill: rgb(245, 222, 179); fill-opacity: 1; white-space: pre;">confirmed</text><g class="layers" style="opacity: 1;"><g class="legendfill"/><g class="legendlines"/><g class="legendsymbols"><g class="legendpoints"><path class="scatterpts" transform="translate(20,0)" d="M7.5,0A7.5,7.5 0 1,1 0,-7.5A7.5,7.5 0 0,1 7.5,0Z" style="opacity: 0.8; stroke-width: 0px; fill: rgb(192, 0, 0); fill-opacity: 1;"/></g></g></g><rect class="legendtoggle" pointer-events="all" x="0" y="-11.25" width="107.53125" height="22.5" style="cursor: pointer; fill: rgb(0, 0, 0); fill-opacity: 0;"/></g><g class="traces" style="opacity: 1;" transform="translate(0, 38.75)"><text class="legendtext user-select-none" text-anchor="start" x="40" y="5.85" style="font-family: Arial; font-size: 15px; fill: rgb(245, 222, 179); fill-opacity: 1; white-space: pre;">deceased</text><g class="layers" style="opacity: 1;"><g class="legendfill"/><g class="legendlines"/><g class="legendsymbols"><g class="legendpoints"><path class="scatterpts" transform="translate(20,0)" d="M7.5,0A7.5,7.5 0 1,1 0,-7.5A7.5,7.5 0 0,1 7.5,0Z" style="opacity: 0.8; stroke-width: 0px; fill: rgb(50, 52, 170); fill-opacity: 1;"/></g></g></g><rect class="legendtoggle" pointer-events="all" x="0" y="-11.25" width="107.53125" height="22.5" style="cursor: pointer; fill: rgb(0, 0, 0); fill-opacity: 0;"/></g></g></g><rect class="scrollbar" rx="20" ry="3" width="0" height="0" style="fill: rgb(128, 139, 164); fill-opacity: 1;" x="0" y="0"/></g><g class="g-gtitle"><text class="gtitle" x="35" y="50" text-anchor="start" dy="0em" style="font-family: Arial; font-size: 21px; fill: rgb(245, 222, 179); opacity: 1; font-weight: normal; white-space: pre;">Genderwise Analysis in South Korea</text></g><g class="g-xtitle"><text class="xtitle" x="322.5" y="466.6" text-anchor="middle" style="font-family: Arial; font-size: 18px; fill: rgb(245, 222, 179); opacity: 1; font-weight: normal; white-space: pre;">Gender</text></g><g class="g-ytitle"/></g></svg>